# xmcd
#
# Track frame offsets:
#	150
#	11190
#	22575
#	34043
#	50438
#	63946
#	75564
#	88134
#	105654
#	117204
#	129474
#
# Disc length: 1952 seconds
#
# Revision: 1
# Processed by: cddbd v1.5.1PL0 Copyright (c) Steve Scherf et al.
# Submitted via: dBpowerAMP V4.0
#
DISCID=7f079e0b
DTITLE=Gerardo Reyes - Vol 2
DYEAR=2004
DGENRE=Latin
TTITLE0=Gerardo Reyes - Rumbo al sur
TTITLE1=Gerardo Reyes - Se volteo la moneda
TTITLE2=Gerardo Reyes - Mi soldadita
TTITLE3=Gerardo reyes - Quisiera amarte menos
TTITLE4=Gerardo Reyes - No hay novedad
TTITLE5=Gerardo reyes - Que nos entierren juntos
TTITLE6=Gerardo Reyes - Mi tierra es leon Guanajuato
TTITLE7=Gerardo Reyes - Paso a la reyna
TTITLE8=Gerardo reyes - Porque no fui tu amigo
TTITLE9=Gerardo reyes - El asesino
TTITLE10=Gerardo Reyes - Yo se que te acordaras
EXTD=
EXTT0=
EXTT1=
EXTT2=
EXTT3=
EXTT4=
EXTT5=
EXTT6=
EXTT7=
EXTT8=
EXTT9=
EXTT10=
PLAYORDER=
